<?xml version="1.0" encoding="UTF-8" standalone="no"?>
<!-- Created with Inkscape (http://www.inkscape.org/) -->

<svg
   xmlns:dc="http://purl.org/dc/elements/1.1/"
   xmlns:cc="http://creativecommons.org/ns#"
   xmlns:rdf="http://www.w3.org/1999/02/22-rdf-syntax-ns#"
   xmlns:svg="http://www.w3.org/2000/svg"
   xmlns="http://www.w3.org/2000/svg"
   xmlns:sodipodi="http://sodipodi.sourceforge.net/DTD/sodipodi-0.dtd"
   xmlns:inkscape="http://www.inkscape.org/namespaces/inkscape"
   width="48"
   height="48"
   id="svg2"
   version="1.1"
   inkscape:version="0.48.2 r9819"
   sodipodi:docname="comeon.svg">
  <title
     id="title3004">ComeOn! Logo</title>
  <defs
     id="defs4" />
  <sodipodi:namedview
     id="base"
     pagecolor="#ffffff"
     bordercolor="#666666"
     borderopacity="1.0"
     inkscape:pageopacity="0.0"
     inkscape:pageshadow="2"
     inkscape:zoom="11.2"
     inkscape:cx="11.716231"
     inkscape:cy="30.727514"
     inkscape:document-units="px"
     inkscape:current-layer="layer1"
     showgrid="false"
     inkscape:window-width="1680"
     inkscape:window-height="1028"
     inkscape:window-x="-8"
     inkscape:window-y="-8"
     inkscape:window-maximized="1" />
  <metadata
     id="metadata7">
    <rdf:RDF>
      <cc:Work
         rdf:about="">
        <dc:format>image/svg+xml</dc:format>
        <dc:type
           rdf:resource="http://purl.org/dc/dcmitype/StillImage" />
        <dc:title>ComeOn! Logo</dc:title>
      </cc:Work>
    </rdf:RDF>
  </metadata>
  <g
     inkscape:label="Layer 1"
     inkscape:groupmode="layer"
     id="layer1"
     transform="translate(0,-1004.3622)">
    <g
       transform="matrix(0.71129235,-0.70289629,0.70289629,0.71129235,0,0)"
       style="font-size:40px;font-style:normal;font-variant:normal;font-weight:normal;font-stretch:normal;line-height:125%;letter-spacing:0px;word-spacing:0px;fill:#666666;fill-opacity:1;stroke:none;font-family:Consolas;-inkscape-font-specification:Consolas"
       id="text2985">
      <path
         d="m -710.41748,763.62775 c -2.04429,0.84635 -4.18621,1.26953 -6.42578,1.26953 -3.60678,0 -6.37696,-1.07748 -8.31055,-3.23242 -1.9336,-2.15495 -2.90039,-5.34179 -2.90039,-9.56055 0,-2.04426 0.26693,-3.89321 0.80078,-5.54688 0.53385,-1.65362 1.29557,-3.05662 2.28516,-4.20898 0.98958,-1.15232 2.18749,-2.04099 3.59375,-2.66602 1.40624,-0.62497 2.98176,-0.93747 4.72656,-0.9375 1.18488,3e-5 2.28514,0.10094 3.30078,0.30274 1.01561,0.20185 1.99217,0.51109 2.92969,0.92773 l 0,3.41797 c -0.9245,-0.50779 -1.88153,-0.89516 -2.87109,-1.16211 -0.9896,-0.2669 -2.07033,-0.40037 -3.24219,-0.40039 -1.19793,2e-5 -2.28191,0.22463 -3.25195,0.67383 -0.97007,0.44924 -1.79363,1.10028 -2.47071,1.95312 -0.67709,0.85289 -1.19792,1.89455 -1.5625,3.125 -0.36459,1.23049 -0.54688,2.63348 -0.54687,4.20899 -10e-6,3.3073 0.67056,5.80079 2.01172,7.48047 1.34113,1.67969 3.30728,2.51953 5.89843,2.51953 1.09374,0 2.14191,-0.12695 3.14453,-0.38086 1.00259,-0.2539 1.96613,-0.60872 2.89063,-1.06445 z"
         style="fill:#666666;fill-opacity:1"
         id="path3002" />
    </g>
    <path
       style="font-size:54.59223938000000200px;font-style:normal;font-variant:normal;font-weight:normal;font-stretch:normal;line-height:125%;letter-spacing:0px;word-spacing:0px;fill:#006499;fill-opacity:1;stroke:none;font-family:Consolas;-inkscape-font-specification:Consolas"
       d="m 34.343863,1006.9273 -10.699186,25.2958 -3.821406,-1.4995 9.284771,-25.8508 z"
       id="path2999" />
    <path
       style="font-size:54.59223938px;font-style:normal;font-variant:normal;font-weight:normal;font-stretch:normal;line-height:125%;letter-spacing:0px;word-spacing:0px;fill:#970000;fill-opacity:1;stroke:none;font-family:Consolas;-inkscape-font-specification:Consolas"
       d="m 21.177688,1032.8715 c 0.718627,0.2821 1.342516,0.6882 1.87168,1.2183 0.529116,0.5302 0.932578,1.1261 1.210407,1.7881 0.277762,0.6617 0.42846,1.3737 0.452078,2.1354 0.02356,0.7618 -0.105644,1.5019 -0.387615,2.2207 -0.282033,0.7185 -0.688079,1.3425 -1.218214,1.8717 -0.530164,0.529 -1.119529,0.9351 -1.768069,1.2181 -0.648607,0.283 -1.347118,0.4389 -2.095569,0.4677 -0.748502,0.029 -1.482048,-0.098 -2.200682,-0.3797 -0.745293,-0.2925 -1.382507,-0.7037 -1.911632,-1.2339 -0.529153,-0.5301 -0.941889,-1.1221 -1.238186,-1.7758 -0.296347,-0.6539 -0.458928,-1.3551 -0.487718,-2.1034 -0.02883,-0.7485 0.09778,-1.482 0.379787,-2.2007 0.28198,-0.7188 0.690681,-1.3493 1.226042,-1.8917 0.535339,-0.5424 1.136584,-0.9593 1.803709,-1.2503 0.667076,-0.2911 1.37486,-0.451 2.123348,-0.48 0.74845,-0.029 1.495334,0.103 2.240634,0.3955 z"
       id="path2994"
       inkscape:connector-curvature="0" />
  </g>
</svg>
